<svg version="1.2" xmlns="http://www.w3.org/2000/svg" viewBox="0 0 1500 1500" width="1500" height="1500">
	<style>
		.s0 { fill: #0f172a }
		@media (prefers-color-scheme: dark) {
			.s0 { fill: #f8fafc }
		}
	</style>
	<path id="Path 0" fill-rule="evenodd" class="s0" d="m796.5 21.15c18.7-0.07 40.52 0.31 48.5 0.85 7.98 0.55 19.22 1.45 25 2.02 5.78 0.57 17.03 1.95 25 3.08 7.97 1.13 19.9 3.18 26.5 4.55 6.6 1.38 16.95 3.84 23 5.47 6.05 1.63 16.85 4.94 24 7.35 7.15 2.41 19.53 7.17 27.5 10.57 7.97 3.4 18.33 8.1 23 10.45 4.67 2.35 13 6.86 18.5 10.03 5.5 3.17 13.38 8.02 17.5 10.78 4.13 2.75 13.46 9.44 34 24.7l12.25 1.04c6.74 0.58 18.78 2.32 26.75 3.88 7.97 1.56 19.9 4.51 26.5 6.56 6.6 2.04 16.28 5.52 21.5 7.73 5.22 2.21 15.13 6.88 22 10.38 6.88 3.5 17.22 9.34 23 12.97 5.78 3.63 14.04 9.15 18.37 12.27 4.33 3.12 11.31 8.52 15.5 12.01 4.2 3.48 13.18 11.36 19.97 17.5 6.79 6.14 17.85 17.23 24.58 24.66 6.73 7.43 15.8 17.78 20.16 23 4.35 5.23 13.12 16.48 19.48 25 6.36 8.53 14.29 19.55 17.61 24.5 3.32 4.95 10.09 15.75 15.04 24 4.96 8.25 11.82 20.18 15.26 26.5 3.44 6.32 9.41 18.48 13.27 27 3.86 8.52 8.82 20 11.01 25.5 2.19 5.5 6.62 17.88 9.83 27.5 3.21 9.63 7.41 23.8 9.34 31.5 1.92 7.7 4.85 20.75 6.51 29 1.65 8.25 3.69 20.4 4.52 27 0.84 6.6 1.98 17.85 2.54 25 0.56 7.15 1.01 19.52 1 27.5 0 7.98-0.47 19.9-1.03 26.5-0.56 6.6-2.11 18.75-3.44 27-1.33 8.25-4.2 21.98-6.38 30.5-2.18 8.52-5.75 20.45-7.93 26.5-2.17 6.05-6.06 15.73-8.63 21.5-2.57 5.77-6.96 14.77-9.76 20-2.79 5.23-7.54 13.55-10.56 18.5-3.02 4.95-8.59 13.16-12.38 18.25-3.78 5.09-7.1 9.14-7.38 9-0.27-0.14 0.16-3.17 0.96-6.75 0.8-3.58 2.16-12.12 3.02-19 0.86-6.87 1.83-20.15 2.17-29.5 0.37-10.4 0.14-22.05-0.59-30-0.66-7.15-1.87-16.6-2.69-21-0.83-4.4-2.18-10.48-3.01-13.5-0.83-3.02-1.86-5.05-2.28-4.5-0.42 0.55-1.57 4.15-2.55 8-0.99 3.85-3.82 12.63-6.29 19.5-2.47 6.88-7.07 18.13-10.23 25-3.15 6.88-8.11 16.77-11.01 22-2.9 5.23-7.63 13.1-10.52 17.5-2.88 4.4-7.82 11.15-16.71 22l0.53 6c0.29 3.3 1.94 10.27 3.68 15.5 1.73 5.23 5.84 14.67 9.12 21 3.28 6.33 8.98 15.55 12.67 20.5 3.69 4.95 12.11 14.58 18.72 21.41 6.61 6.82 17.43 16.72 24.07 22 6.63 5.27 14.91 11.84 18.41 14.59 6.28 4.94 6.34 5.05 5.74 9-0.34 2.2-2.19 7.15-4.11 11-1.92 3.85-6.4 10.6-9.96 15-3.55 4.4-14.49 15.18-24.3 23.95-9.81 8.77-20.45 18.67-23.64 22-3.19 3.33-6.79 8.07-8 10.55-1.82 3.72-2.19 6.14-2.12 14 0.06 6.71 0.87 12.66 2.75 20.25 1.47 5.91 2.68 12.21 2.68 14 0.01 1.84-1.12 4.98-2.61 7.25-1.44 2.2-4.93 5.92-7.76 8.26-2.83 2.34-10.66 7.06-17.4 10.5-6.74 3.43-12.25 6.58-12.25 6.99 0.01 0.41 1.2 3.11 2.66 6 1.46 2.89 3.31 8.63 4.11 12.75 1.16 5.99 1.22 8.41 0.29 12-1 3.85-3.03 6.3-14.05 17-7.09 6.88-14.48 15.09-16.44 18.25-1.96 3.16-4.71 9.69-6.11 14.5-1.41 4.81-4.33 17.75-6.5 28.75-2.16 11-4.63 23.38-5.47 27.5-0.85 4.13-2.73 9.97-4.19 13-1.46 3.03-4.94 7.76-7.73 10.52-2.78 2.77-7.98 6.48-11.56 8.26-4.27 2.12-9.24 3.6-14.5 4.33-6.43 0.89-10.65 0.8-21.5-0.47-7.42-0.87-25.42-3.86-40-6.65-14.58-2.79-34.83-6.89-45-9.1-10.17-2.21-29.53-6.28-43-9.05-13.47-2.76-25.51-4.76-26.75-4.43-1.24 0.32-4.32 2.5-6.85 4.84-2.53 2.34-6.1 6.72-7.93 9.75-1.83 3.03-4.98 9.33-7.01 14-2.02 4.67-5.47 13.45-7.65 19.5-2.18 6.05-6.82 20.9-10.31 33-3.48 12.1-8.24 31.45-10.58 43-3.87 19.15-4.11 21.22-2.77 23.5 0.81 1.38 7.52 10.83 14.9 21 7.38 10.17 18.63 25.03 25 33 6.37 7.97 18.24 21.92 26.39 31 8.15 9.08 22.3 24.02 31.44 33.21 11.35 11.42 16.14 16.87 15.12 17.2-0.83 0.27-7.35 1.38-14.5 2.47-7.15 1.1-17.05 2.47-22 3.05-4.95 0.58-15.3 1.49-23 2.02-7.7 0.53-23 1.26-34 1.62-11.49 0.38-30.21 0.17-44-0.5-13.2-0.64-33-2.06-44-3.16-11-1.09-25.85-2.86-33-3.91-7.15-1.06-19.3-3.07-27-4.48-7.7-1.41-19.4-3.73-26-5.14-6.6-1.42-17.85-4.13-25-6.03-7.15-1.89-17.5-4.75-23-6.35-5.5-1.6-15.62-4.77-22.5-7.04-6.87-2.28-18.8-6.53-26.5-9.45-7.7-2.92-19.4-7.66-26-10.54-6.6-2.87-20.33-9.38-30.5-14.47-10.17-5.08-25.25-13.19-33.5-18.01-8.25-4.83-19.73-11.92-25.5-15.76-5.77-3.84-17.25-12.06-25.5-18.25-8.25-6.2-19.05-14.76-24-19.02-4.95-4.27-13.65-12.08-19.34-17.36-5.69-5.28-15.24-15-21.21-21.6-5.98-6.6-15.21-17.4-20.51-24-5.31-6.6-14.26-18.97-19.89-27.5-5.64-8.53-12.68-19.76-21.05-34.43l-0.75 4.97c-0.4 2.73-1.62 11.71-2.7 19.96-1.08 8.25-2.46 24-3.07 35-0.8 14.34-0.81 25.09-0.05 38 0.59 9.9 1.76 23.4 2.62 30 0.85 6.6 2.66 17.63 4.03 24.5 1.37 6.88 3.86 17.67 5.53 24 1.68 6.33 4.79 16.67 6.93 23 2.13 6.33 6.98 18.7 10.78 27.5 3.8 8.8 6.74 16.11 6.54 16.25-0.2 0.14-4.97-1.8-10.61-4.31-5.64-2.5-16.1-7.76-23.25-11.67-7.15-3.91-17.27-9.78-22.5-13.05-5.23-3.26-14-9.12-19.5-13.02-5.5-3.89-14.49-10.71-19.98-15.14-5.49-4.43-15.56-13.46-22.38-20.06-6.81-6.6-16.11-16.28-20.65-21.5-4.55-5.22-12.03-14.51-16.63-20.63-4.6-6.12-12.11-17.37-16.7-25-4.59-7.63-10.94-19.27-14.11-25.87-3.18-6.6-7.37-16.05-9.31-21-1.95-4.95-5.19-13.72-7.2-19.5-2.02-5.78-5.44-17.36-7.6-25.75-2.17-8.39-5.08-21.44-6.48-29-1.39-7.56-3.24-19.37-4.1-26.25-0.86-6.87-1.86-25.33-2.86-69.5l-7.16 18c-3.93 9.9-9.01 24.3-11.27 32-2.26 7.7-5.44 20.53-7.06 28.5-1.63 7.97-3.73 20.13-4.67 27-1.22 8.86-1.72 19.19-1.71 35.5 0 15.88 0.54 27.02 1.71 36 0.94 7.15 2.63 17.95 3.75 24 1.12 6.05 3.15 15.5 4.5 21 1.35 5.5 2.22 10.11 1.93 10.25-0.28 0.14-6.33-6.16-13.43-14-7.1-7.84-16.79-18.97-21.54-24.75-4.75-5.78-11.96-15.22-16.01-21-4.06-5.78-10.34-15.22-13.97-21-3.63-5.78-9.02-15.22-11.97-21-2.96-5.78-7.42-15.22-9.91-21-2.49-5.78-6.17-15.22-8.18-21-2.01-5.78-5.17-16.35-7.02-23.5-1.84-7.15-4.3-19.3-5.45-27-1.15-7.7-2.37-21.65-2.7-31-0.38-10.39-0.14-22.44 0.6-31 0.66-7.7 2.31-20.53 3.65-28.5 1.34-7.97 4.03-20.8 5.97-28.5 1.94-7.7 6.16-21.87 9.38-31.5 3.23-9.62 8.94-24.7 12.69-33.5 3.75-8.8 11.82-26.12 17.93-38.5 6.12-12.37 15.31-30.15 20.44-39.5 5.13-9.35 12.86-23.08 17.19-30.5 4.32-7.42 7.83-13.5 7.8-13.5-0.03 0-5.78 1.88-12.77 4.18-7 2.29-17.45 5.08-23.22 6.19-5.77 1.11-16.57 2.54-24 3.19-10.39 0.91-17.07 0.91-29 0-8.52-0.65-20.23-2.04-26-3.08-5.77-1.05-15.9-3.45-22.5-5.35-6.6-1.9-17.18-5.46-23.5-7.91-6.32-2.46-15.89-6.55-21.25-9.09-5.36-2.55-9.64-4.81-9.5-5.04 0.14-0.22 6.55-2.5 14.25-5.06 7.7-2.56 18.5-6.87 24-9.56 5.5-2.7 13.38-6.89 17.5-9.31 4.13-2.42 12.11-7.84 17.75-12.03 5.64-4.2 15.04-12.24 20.89-17.88 5.85-5.64 14.22-14.52 18.6-19.75 4.38-5.23 12.48-16.25 18-24.5 6.41-9.58 13.4-21.87 19.34-34 5.12-10.45 11.32-24.62 13.78-31.5 2.46-6.87 6.04-17.67 7.96-24 1.91-6.33 5.31-19.6 7.55-29.5 3.09-13.62 4.7-24.2 6.64-43.5 1.4-14.02 3.23-31.12 4.05-38 0.83-6.87 2.66-19.25 4.06-27.5 1.41-8.25 4.12-22.2 6.02-31 1.9-8.8 4.82-21.4 6.49-28 1.67-6.6 5.29-19.43 8.04-28.5 2.76-9.07 7.73-23.93 11.05-33 3.32-9.07 8.95-23.25 12.53-31.5 3.57-8.25 8.74-19.5 11.5-25 2.75-5.5 8.16-15.62 12.01-22.5 3.86-6.87 12.08-20.15 18.28-29.5 6.19-9.35 15.24-22.24 20.11-28.64 4.87-6.4 13.42-16.98 19-23.5 5.57-6.52 17.05-18.61 25.5-26.86 8.44-8.25 20.98-19.71 27.85-25.47 6.88-5.76 17-13.86 22.5-18 5.51-4.14 16.08-11.63 23.5-16.64 7.43-5.01 20.14-13 28.25-17.75 8.11-4.75 22.29-12.4 31.5-17 9.21-4.6 21.7-10.51 27.75-13.14 6.05-2.62 16.63-6.9 23.5-9.5 6.88-2.61 21.05-7.53 31.5-10.95 10.45-3.42 26.42-8.02 35.5-10.22 9.08-2.21 25.5-5.51 36.5-7.34 11-1.83 26.75-4.07 35-4.97 8.25-0.9 20.17-1.99 26.5-2.43 6.33-0.44 26.8-0.86 45.5-0.94zm252 299.12c-47.28 16.01-61.45 20.81-62 21-0.55 0.19 10.03 4.09 23.5 8.66 13.47 4.58 25.17 8.65 26 9.05 1.08 0.51-4.86 5.66-21 18.19-12.37 9.62-31.95 24.84-43.5 33.83-11.55 8.99-24.71 19.2-29.25 22.68-4.54 3.47-8.7 6.32-9.25 6.32-0.55 0-13.04-11.8-27.75-26.22-14.71-14.42-38.67-37.92-53.25-52.23-14.58-14.31-38.2-37.49-52.5-51.52-14.3-14.02-31.25-30.68-37.67-37.02l-11.67-11.51c-53.71 52.55-56.2 55.27-55.94 58 0.26 2.76 0.03 3-2.9 3-2.85 0-8.85 5.56-58.33 54-30.33 29.7-71.2 69.72-90.82 88.94-19.62 19.22-77.07 75.47-127.67 125.01-50.6 49.54-107.88 105.59-127.29 124.56-19.4 18.97-35.15 34.81-35 35.19 0.16 0.39 27.56 27.39 60.88 60 33.33 32.62 77.2 75.6 97.5 95.52 20.3 19.93 38.49 38.25 40.41 40.72 1.92 2.46 4.06 4.5 4.75 4.52 0.69 0.02 15.76 14.34 33.5 31.82 17.74 17.49 77.48 76.08 132.75 130.23 55.27 54.14 106.69 104.41 114.25 111.71 9.78 9.44 14.17 13.06 15.21 12.53 0.81-0.41 14.42-13.57 30.26-29.25 15.83-15.67 38.69-38.17 50.79-50 12.1-11.82 34.83-34.1 50.51-49.5 15.68-15.4 40.88-40.16 56-55.03 15.11-14.86 49.76-48.82 76.98-75.46 27.22-26.64 59.4-58.12 71.49-69.97 12.1-11.85 33.93-33.25 48.5-47.57 14.58-14.32 37.98-37.27 52-51 14.03-13.73 33.38-32.74 43-42.25l17.51-17.27c-33.33-32.79-55.04-54.15-69.75-68.63l-26.75-26.32c14.13-13.56 18.75-17.79 19.37-18.15 0.62-0.35 5.48-5.53 10.79-11.5 5.31-5.97 12.34-14.22 15.62-18.35 3.28-4.12 8.63-11.33 11.9-16 3.27-4.67 9.27-14.12 13.33-21 4.07-6.87 9.94-17.9 13.05-24.5 3.11-6.6 7.57-16.95 9.91-23 2.34-6.05 6.2-17.75 8.56-26 2.36-8.25 5.43-20.85 6.82-28 1.4-7.15 3.2-18.4 4.02-25 0.82-6.6 1.73-16.5 2.01-22l0.52-10c-3.13 10.08-6.94 22-10.49 33-3.55 11-10.06 29.23-14.48 40.5-4.42 11.28-10.97 27.03-14.57 35-3.59 7.98-10.7 22.6-15.79 32.5-5.1 9.9-13.67 25.2-19.05 34-5.37 8.8-13.54 21.4-18.14 28-4.61 6.6-12.57 17.17-17.71 23.5-5.13 6.33-9.82 11.5-10.41 11.5-0.6 0-26.44-24.74-57.42-54.98-30.99-30.24-68.26-66.7-82.84-81.03-14.58-14.34-30.65-30.1-35.72-35.03l-9.22-8.96c-8.18 7.09-21.25 17.55-34.31 27.82q-23.76 18.69-27 19.29c-2.07 0.38-4.43 0.02-6.5-1-2.05-1.02-3.83-2.99-4.82-5.36-0.86-2.06-1.31-4.87-1-6.25 0.31-1.37 1.8-3.72 3.31-5.21 1.52-1.49 9.37-7.79 17.45-14 8.07-6.21 35.74-27.71 61.47-47.79 25.74-20.07 54-42.06 62.82-48.86l16.02-12.36c1.05 6.76 1.61 18.96 1.92 31.47 0.32 12.51 0.92 22.73 1.33 22.7 0.41-0.02 8.29-11.16 17.5-24.75 9.22-13.58 17.54-25.68 18.5-26.87l1.75-2.17c49.6 14.6 64.22 18.86 64.5 18.88 0.28 0.03-0.68-1.43-2.11-3.24-1.44-1.82-10.17-13.65-19.4-26.3-9.23-12.65-16.96-23.45-17.17-24-0.22-0.55 5.06-9.1 11.72-19 6.67-9.9 15.12-22.4 18.79-27.77 3.67-5.38 6.45-9.91 6.17-10.07-0.28-0.17-14.45 4.54-31.5 10.46-17.05 5.92-31.22 10.8-31.5 10.85-0.28 0.05-9.31-11.63-20.07-25.94-10.77-14.32-19.88-26.03-20.24-26.03-0.37 0-0.78 14.91-0.93 33.14zm-298.38 155.98c0.35 0.13 31.21 30.17 68.57 66.74 37.36 36.58 99.98 98 139.16 136.5 39.17 38.5 71.1 70.33 70.94 70.72-0.16 0.39-22.65 22.67-49.97 49.5-27.33 26.83-82.91 81.37-123.5 121.2-40.6 39.83-80.88 79.43-105.2 103.58l-42.63-42c-23.45-23.1-51.6-50.66-62.56-61.25-10.96-10.58-19.93-19.7-19.93-20.25 0-0.55 48.72-30.15 108.25-65.77 59.54-35.63 115.79-69.27 125.01-74.75 9.22-5.49 16.75-10.31 16.75-10.73 0-0.41-21.72-13.64-48.26-29.4-26.53-15.76-82.78-49.28-125-74.5-42.21-25.22-76.97-45.85-77.25-45.85-0.27 0-0.5 67.5-0.5 150 0 82.5-0.33 150-0.75 149.99-0.41-0.01-20.1-19.28-43.75-42.81-23.65-23.54-54.7-54.27-69-68.29-14.3-14.02-29.05-28.39-32.78-31.94-3.73-3.55-6.77-6.67-6.75-6.95 0.01-0.27 16.56-16.66 36.78-36.42 20.21-19.75 48-46.99 61.75-60.52 13.75-13.53 49.08-48.2 78.5-77.04 29.43-28.84 64.3-63.14 77.49-76.22 13.19-13.08 24.27-23.68 24.63-23.54z"/>
</svg>
